<svg version="1.1" id="Layer_1" xmlns="http://www.w3.org/2000/svg" xmlns:xlink="http://www.w3.org/1999/xlink" x="0px" y="0px"
	 viewBox="-10 -5 100 100" width="64" height="64" xml:space="preserve" fill="#01588E">
<g>
	<path d="M64.5,42.2c-1.4,8.6-6.8,16-14.6,19.8l0,0c-7.5,3.7-16.3,3.7-23.8,0l0,0C13,55.4,7.6,39.3,14.2,26.1
		s22.7-18.6,35.9-12c3.1,1.5,5.8,3.6,8.1,6.2l-1.3,0.9l-17.7,12c-2.7-0.5-5.2,1.3-5.7,3.9c-0.5,2.7,1.3,5.2,3.9,5.7
		c2.7,0.5,5.2-1.3,5.7-3.9c0-0.2,0.1-0.5,0.1-0.7L59,23.9l1.8-1.6l1.4-1.3l6.2-5.5h0.1l0,0l0,0l0.2-0.1l0,0c-0.3-0.4-0.7-0.9-1-1.3
		l0,0l0,0C53.9-1.8,29.9-3.6,14,10.2s-17.6,37.7-3.9,53.6c0.6,0.7,1.2,1.3,1.8,2l0.1,0.1l11,10.7l13.4,12.9c0.9,0.9,2.4,0.9,3.3,0
		l13.3-13L63.8,66c6.6-6.1,10.9-14.3,12-23.2L64.5,42.2z"/>
</g>
</svg>
